<svg id="visual" viewBox="0 0 1080 200" width="1080" height="200" xmlns="http://www.w3.org/2000/svg" xmlns:xlink="http://www.w3.org/1999/xlink" version="1.1"><rect x="0" y="0" width="1080" height="200" fill="#fffffe"></rect><path d="M0 85L20 87.3C40 89.7 80 94.3 120 94.2C160 94 200 89 240 90.8C280 92.7 320 101.3 360 99C400 96.7 440 83.3 480 81.8C520 80.3 560 90.7 600 92.8C640 95 680 89 720 85.7C760 82.3 800 81.7 840 86.5C880 91.3 920 101.7 960 106.5C1000 111.3 1040 110.7 1060 110.3L1080 110L1080 201L1060 201C1040 201 1000 201 960 201C920 201 880 201 840 201C800 201 760 201 720 201C680 201 640 201 600 201C560 201 520 201 480 201C440 201 400 201 360 201C320 201 280 201 240 201C200 201 160 201 120 201C80 201 40 201 20 201L0 201Z" fill="#327ceb"></path><path d="M0 109L20 108.7C40 108.3 80 107.7 120 104.2C160 100.7 200 94.3 240 91.2C280 88 320 88 360 93.7C400 99.3 440 110.7 480 110.3C520 110 560 98 600 94.7C640 91.3 680 96.7 720 101.8C760 107 800 112 840 109.2C880 106.3 920 95.7 960 90C1000 84.3 1040 83.7 1060 83.3L1080 83L1080 201L1060 201C1040 201 1000 201 960 201C920 201 880 201 840 201C800 201 760 201 720 201C680 201 640 201 600 201C560 201 520 201 480 201C440 201 400 201 360 201C320 201 280 201 240 201C200 201 160 201 120 201C80 201 40 201 20 201L0 201Z" fill="#2c6ed5"></path><path d="M0 116L20 113.3C40 110.7 80 105.3 120 107.7C160 110 200 120 240 120.2C280 120.3 320 110.7 360 107.2C400 103.7 440 106.3 480 106.3C520 106.3 560 103.7 600 104.3C640 105 680 109 720 113C760 117 800 121 840 120C880 119 920 113 960 112C1000 111 1040 115 1060 117L1080 119L1080 201L1060 201C1040 201 1000 201 960 201C920 201 880 201 840 201C800 201 760 201 720 201C680 201 640 201 600 201C560 201 520 201 480 201C440 201 400 201 360 201C320 201 280 201 240 201C200 201 160 201 120 201C80 201 40 201 20 201L0 201Z" fill="#2560bf"></path><path d="M0 136L20 136.8C40 137.7 80 139.3 120 141C160 142.7 200 144.3 240 140.8C280 137.3 320 128.7 360 128.5C400 128.3 440 136.7 480 140.7C520 144.7 560 144.3 600 143.2C640 142 680 140 720 135.5C760 131 800 124 840 124C880 124 920 131 960 135.8C1000 140.7 1040 143.3 1060 144.7L1080 146L1080 201L1060 201C1040 201 1000 201 960 201C920 201 880 201 840 201C800 201 760 201 720 201C680 201 640 201 600 201C560 201 520 201 480 201C440 201 400 201 360 201C320 201 280 201 240 201C200 201 160 201 120 201C80 201 40 201 20 201L0 201Z" fill="#1d52aa"></path><path d="M0 157L20 153.3C40 149.7 80 142.3 120 142C160 141.7 200 148.3 240 151.2C280 154 320 153 360 153.7C400 154.3 440 156.7 480 158C520 159.3 560 159.7 600 158.2C640 156.7 680 153.3 720 151.2C760 149 800 148 840 146.2C880 144.3 920 141.7 960 142C1000 142.3 1040 145.7 1060 147.3L1080 149L1080 201L1060 201C1040 201 1000 201 960 201C920 201 880 201 840 201C800 201 760 201 720 201C680 201 640 201 600 201C560 201 520 201 480 201C440 201 400 201 360 201C320 201 280 201 240 201C200 201 160 201 120 201C80 201 40 201 20 201L0 201Z" fill="#154595"></path><path d="M0 165L20 165C40 165 80 165 120 166.8C160 168.7 200 172.3 240 170.7C280 169 320 162 360 159.2C400 156.3 440 157.7 480 159.5C520 161.3 560 163.7 600 163.5C640 163.3 680 160.7 720 159C760 157.3 800 156.7 840 158C880 159.3 920 162.7 960 165.2C1000 167.7 1040 169.3 1060 170.2L1080 171L1080 201L1060 201C1040 201 1000 201 960 201C920 201 880 201 840 201C800 201 760 201 720 201C680 201 640 201 600 201C560 201 520 201 480 201C440 201 400 201 360 201C320 201 280 201 240 201C200 201 160 201 120 201C80 201 40 201 20 201L0 201Z" fill="#0a3881"></path><path d="M0 180L20 180.7C40 181.3 80 182.7 120 184C160 185.3 200 186.7 240 186.8C280 187 320 186 360 184.7C400 183.3 440 181.7 480 180.3C520 179 560 178 600 176.7C640 175.3 680 173.7 720 173.8C760 174 800 176 840 176C880 176 920 174 960 174C1000 174 1040 176 1060 177L1080 178L1080 201L1060 201C1040 201 1000 201 960 201C920 201 880 201 840 201C800 201 760 201 720 201C680 201 640 201 600 201C560 201 520 201 480 201C440 201 400 201 360 201C320 201 280 201 240 201C200 201 160 201 120 201C80 201 40 201 20 201L0 201Z" fill="#002c6e"></path></svg>