<svg id="visual" viewBox="0 0 960 300" width="960" height="300" xmlns="http://www.w3.org/2000/svg" xmlns:xlink="http://www.w3.org/1999/xlink" version="1.1"><rect x="0" y="0" width="960" height="300" fill="#fffffe"></rect><path d="M0 138L17.8 137.7C35.7 137.3 71.3 136.7 106.8 134.8C142.3 133 177.7 130 213.2 134.8C248.7 139.7 284.3 152.3 320 158.7C355.7 165 391.3 165 426.8 153.7C462.3 142.3 497.7 119.7 533.2 110.8C568.7 102 604.3 107 640 117.2C675.7 127.3 711.3 142.7 746.8 148.8C782.3 155 817.7 152 853.2 147.7C888.7 143.3 924.3 137.7 942.2 134.8L960 132L960 301L942.2 301C924.3 301 888.7 301 853.2 301C817.7 301 782.3 301 746.8 301C711.3 301 675.7 301 640 301C604.3 301 568.7 301 533.2 301C497.7 301 462.3 301 426.8 301C391.3 301 355.7 301 320 301C284.3 301 248.7 301 213.2 301C177.7 301 142.3 301 106.8 301C71.3 301 35.7 301 17.8 301L0 301Z" fill="#fffffe"></path><path d="M0 165L17.8 158C35.7 151 71.3 137 106.8 136.2C142.3 135.3 177.7 147.7 213.2 157C248.7 166.3 284.3 172.7 320 176.8C355.7 181 391.3 183 426.8 178.5C462.3 174 497.7 163 533.2 157.2C568.7 151.3 604.3 150.7 640 157C675.7 163.3 711.3 176.7 746.8 173C782.3 169.3 817.7 148.7 853.2 147.2C888.7 145.7 924.3 163.3 942.2 172.2L960 181L960 301L942.2 301C924.3 301 888.7 301 853.2 301C817.7 301 782.3 301 746.8 301C711.3 301 675.7 301 640 301C604.3 301 568.7 301 533.2 301C497.7 301 462.3 301 426.8 301C391.3 301 355.7 301 320 301C284.3 301 248.7 301 213.2 301C177.7 301 142.3 301 106.8 301C71.3 301 35.7 301 17.8 301L0 301Z" fill="#fafcf8"></path><path d="M0 161L17.8 163.2C35.7 165.3 71.3 169.7 106.8 173C142.3 176.3 177.7 178.7 213.2 177.8C248.7 177 284.3 173 320 168.7C355.7 164.3 391.3 159.7 426.8 164.7C462.3 169.7 497.7 184.3 533.2 187.7C568.7 191 604.3 183 640 180.3C675.7 177.7 711.3 180.3 746.8 179C782.3 177.7 817.7 172.3 853.2 172C888.7 171.7 924.3 176.3 942.2 178.7L960 181L960 301L942.2 301C924.3 301 888.7 301 853.2 301C817.7 301 782.3 301 746.8 301C711.3 301 675.7 301 640 301C604.3 301 568.7 301 533.2 301C497.7 301 462.3 301 426.8 301C391.3 301 355.7 301 320 301C284.3 301 248.7 301 213.2 301C177.7 301 142.3 301 106.8 301C71.3 301 35.7 301 17.8 301L0 301Z" fill="#f2faf5"></path><path d="M0 186L17.8 186.5C35.7 187 71.3 188 106.8 194.8C142.3 201.7 177.7 214.3 213.2 218.3C248.7 222.3 284.3 217.7 320 209.3C355.7 201 391.3 189 426.8 185.5C462.3 182 497.7 187 533.2 190.8C568.7 194.7 604.3 197.3 640 202C675.7 206.7 711.3 213.3 746.8 209.2C782.3 205 817.7 190 853.2 190.7C888.7 191.3 924.3 207.7 942.2 215.8L960 224L960 301L942.2 301C924.3 301 888.7 301 853.2 301C817.7 301 782.3 301 746.8 301C711.3 301 675.7 301 640 301C604.3 301 568.7 301 533.2 301C497.7 301 462.3 301 426.8 301C391.3 301 355.7 301 320 301C284.3 301 248.7 301 213.2 301C177.7 301 142.3 301 106.8 301C71.3 301 35.7 301 17.8 301L0 301Z" fill="#e9f8f4"></path><path d="M0 243L17.8 238.2C35.7 233.3 71.3 223.7 106.8 218.8C142.3 214 177.7 214 213.2 216.7C248.7 219.3 284.3 224.7 320 225.5C355.7 226.3 391.3 222.7 426.8 224.2C462.3 225.7 497.7 232.3 533.2 235.2C568.7 238 604.3 237 640 236.5C675.7 236 711.3 236 746.8 236C782.3 236 817.7 236 853.2 236.5C888.7 237 924.3 238 942.2 238.5L960 239L960 301L942.2 301C924.3 301 888.7 301 853.2 301C817.7 301 782.3 301 746.8 301C711.3 301 675.7 301 640 301C604.3 301 568.7 301 533.2 301C497.7 301 462.3 301 426.8 301C391.3 301 355.7 301 320 301C284.3 301 248.7 301 213.2 301C177.7 301 142.3 301 106.8 301C71.3 301 35.7 301 17.8 301L0 301Z" fill="#e0f6f6"></path><path d="M0 243L17.8 245.5C35.7 248 71.3 253 106.8 251.3C142.3 249.7 177.7 241.3 213.2 240C248.7 238.7 284.3 244.3 320 244.2C355.7 244 391.3 238 426.8 235C462.3 232 497.7 232 533.2 234.3C568.7 236.7 604.3 241.3 640 244.2C675.7 247 711.3 248 746.8 249.5C782.3 251 817.7 253 853.2 252.3C888.7 251.7 924.3 248.3 942.2 246.7L960 245L960 301L942.2 301C924.3 301 888.7 301 853.2 301C817.7 301 782.3 301 746.8 301C711.3 301 675.7 301 640 301C604.3 301 568.7 301 533.2 301C497.7 301 462.3 301 426.8 301C391.3 301 355.7 301 320 301C284.3 301 248.7 301 213.2 301C177.7 301 142.3 301 106.8 301C71.3 301 35.7 301 17.8 301L0 301Z" fill="#daf2fa"></path><path d="M0 259L17.8 261.3C35.7 263.7 71.3 268.3 106.8 268.5C142.3 268.7 177.7 264.3 213.2 262.3C248.7 260.3 284.3 260.7 320 263.7C355.7 266.7 391.3 272.3 426.8 273.7C462.3 275 497.7 272 533.2 270C568.7 268 604.3 267 640 265.3C675.7 263.7 711.3 261.3 746.8 264.3C782.3 267.3 817.7 275.7 853.2 275.5C888.7 275.3 924.3 266.7 942.2 262.3L960 258L960 301L942.2 301C924.3 301 888.7 301 853.2 301C817.7 301 782.3 301 746.8 301C711.3 301 675.7 301 640 301C604.3 301 568.7 301 533.2 301C497.7 301 462.3 301 426.8 301C391.3 301 355.7 301 320 301C284.3 301 248.7 301 213.2 301C177.7 301 142.3 301 106.8 301C71.3 301 35.7 301 17.8 301L0 301Z" fill="#d8eefe"></path></svg>